<svg xmlns="http://www.w3.org/2000/svg" width="29" height="22"><defs><linearGradient id="a" x1="17.286%" x2="89.449%" y1="9.524%" y2="100%"><stop offset="0%" stop-color="#FFC455"/><stop offset="100%" stop-color="#FF547C"/></linearGradient><linearGradient id="b" x1="19.74%" x2="91.837%" y1="10.361%" y2="100%"><stop offset="0%" stop-color="#47C2FF"/><stop offset="100%" stop-color="#5950FF"/></linearGradient></defs><g fill="none" fill-rule="evenodd"><path fill="url(#a)" d="M16.838 8.334a3.666 3.666 0 0 1-.07-.672c0-1.674 1.132-3.082 2.7-3.603-.005-.076-.023-.15-.023-.228C19.445 1.716 21.243 0 23.46 0c2.217 0 4.015 1.716 4.015 3.83V16.6c0 2.115-1.798 3.831-4.015 3.831-1.755 0-3.232-1.08-3.778-2.576-.081.002-.157.022-.238.022-2.957 0-5.355-2.287-5.355-5.108 0-1.913 1.117-3.56 2.748-4.435z" transform="matrix(-1 0 0 1 42.128 .658)"/><path fill="url(#b)" d="M2.748 8.334a3.666 3.666 0 0 1-.07-.672c0-1.674 1.131-3.082 2.7-3.603-.005-.076-.024-.15-.024-.228C5.354 1.716 7.154 0 9.37 0c2.217 0 4.016 1.716 4.016 3.83V16.6c0 2.115-1.799 3.831-4.016 3.831-1.754 0-3.231-1.08-3.778-2.576-.08.002-.157.022-.238.022C2.397 17.877 0 15.59 0 12.77c0-1.913 1.116-3.56 2.748-4.435z" transform="translate(.561 .658)"/></g></svg>